inDegrees=no
num_controls=7
num_derivatives=13
num_iterations=119
num_multipliers=7
num_parameters=0
num_slacks=7
num_states=26
objective=5.615115
objective_accelerations=0.736426
objective_balance=0.065233
objective_effort=0.375458
objective_height=4.415453
objective_ligament=0.022544
solver_duration=1337.532118
status=Solve_Succeeded
success=true
DataType=double
version=3
OpenSimVersion=4.4-2022-07-23-0e9fedc
endheader
time	/jointset/ground_pelvis/pelvis_tilt/value	/jointset/ground_pelvis/pelvis_tx/value	/jointset/ground_pelvis/pelvis_ty/value	/jointset/hip_l/hip_flexion_l/value	/jointset/hip_l/hip_adduction_l/value	/jointset/hip_l/hip_rotation_l/value	/jointset/back/lumbar_extension/value	/jointset/patellofemoral_l/patellar_flexion_l/value	/jointset/knee_l/knee_flexion_l/value	/jointset/knee_l/knee_adduction_l/value	/jointset/knee_l/knee_rotation_l/value	/jointset/ankle_l/ankle_angle_l/value	/jointset/subtalar_l/subtalar_angle_l/value	/jointset/ground_pelvis/pelvis_tilt/speed	/jointset/ground_pelvis/pelvis_tx/speed	/jointset/ground_pelvis/pelvis_ty/speed	/jointset/hip_l/hip_flexion_l/speed	/jointset/hip_l/hip_adduction_l/speed	/jointset/hip_l/hip_rotation_l/speed	/jointset/back/lumbar_extension/speed	/jointset/patellofemoral_l/patellar_flexion_l/speed	/jointset/knee_l/knee_flexion_l/speed	/jointset/knee_l/knee_adduction_l/speed	/jointset/knee_l/knee_rotation_l/speed	/jointset/ankle_l/ankle_angle_l/speed	/jointset/subtalar_l/subtalar_angle_l/speed	/forceset/tau_hip_flexion_l	/forceset/tau_hip_adduction_l	/forceset/tau_hip_rotation_l	/forceset/tau_knee_flexion_l	/forceset/tau_ankle_angle_l	/forceset/tau_subtalar_angle_l	/forceset/tau_lumbar_extension	lambda_cid13_p0	lambda_cid13_p1	lambda_cid13_p2	lambda_cid13_p3	lambda_cid13_p4	lambda_cid13_p5	lambda_cid14_p0	/jointset/ground_pelvis/pelvis_tilt/accel	/jointset/ground_pelvis/pelvis_tx/accel	/jointset/ground_pelvis/pelvis_ty/accel	/jointset/hip_l/hip_flexion_l/accel	/jointset/hip_l/hip_adduction_l/accel	/jointset/hip_l/hip_rotation_l/accel	/jointset/back/lumbar_extension/accel	/jointset/patellofemoral_l/patellar_flexion_l/accel	/jointset/knee_l/knee_flexion_l/accel	/jointset/knee_l/knee_adduction_l/accel	/jointset/knee_l/knee_rotation_l/accel	/jointset/ankle_l/ankle_angle_l/accel	/jointset/subtalar_l/subtalar_angle_l/accel	gamma_cid13_p0	gamma_cid13_p1	gamma_cid13_p2	gamma_cid13_p3	gamma_cid13_p4	gamma_cid13_p5	gamma_cid14_p0
0	-0.04004026923629096	0.06914151878864153	0.8959715951863615	0.1955292361009247	-0.3217892792293789	-0.4877297512455527	-0.137903700187828	0.07015350928391566	0.07015350928391206	-0.1745326348836523	-0.1219794871672221	-0.06701017130107029	0.004102709409289479	0	0	0	0	0	0	0	0	0	0	0	0	0	0.1145185147385698	-0.07758299513373842	-0.02834075413391272	-0.2125640886068046	0.1420795111185231	-0.02769105595867996	-0.06327359656162994	8.81030499382253	6.02875196580874	3.791448406405479	28.01540589382219	-515.059893633622	-72.45310456530171	-40.02494712227134	-6.518532675408938	-2.926361605285862	-1.137196872279458	15.1605839684065	-1.941805686139323	2.948159106222461	-3.175265465583434	8.448515230739554	8.448515230739375	0.1021085224346424	-0.8115086067791726	-0.1846495523407457	-2.236301573211906	9.991776618288574e-09	1.287080235107236e-07	4.702511067973264e-08	-5.974740005437762e-09	6.076124807172962e-08	8.764214941143466e-08	-6.961840268576283e-11
0.01	-0.04035441554764299	0.06899723057823599	0.8959162258072598	0.1962647135273903	-0.32188529426274	-0.4875827372282717	-0.1380687291742825	0.07056310803816206	0.070563108038196	-0.1745315448769655	-0.1220154213383773	-0.06702234745677681	0.003990453435318043	-0.06256536449756263	-0.02870344895859121	-0.01103771669077423	0.1464153657205355	-0.01911290727024755	0.02927548657290452	-0.03269890156375407	0.08152897194203251	0.08152897194203203	0.0002037568314446218	-0.007135873064262105	-0.002409189926311645	-0.02233668015652918	0.1104145202766114	-0.08175034608510026	-0.02774913537931289	-0.2091343714805334	0.1363623104580184	-0.02102129036096601	-0.059547945171922	7.230338614519678	3.554964075054333	4.01878399921543	27.37111380771523	-515.7868390220671	-77.48826749129036	-40.03358492039747	-6.085962661382166	-2.819208768563204	-1.081623045649868	14.27998686156573	-1.882531627520672	2.898142573393444	-3.271168141966543	7.946471353204483	7.946471353204608	-0.02260646798522431	-0.6569803630460922	-0.2651421002570729	-2.215200232592846	-1.861628605605589e-08	1.51234282785005e-07	9.306582217016491e-08	1.73023480281164e-08	-1.45524198159869e-07	8.226502291804862e-08	-6.271993963224122e-09
0.02	-0.04128630036886931	0.06857053343276036	0.8957515664656168	0.1984439394085157	-0.3221697380448117	-0.4871467885171335	-0.1385515403044332	0.07177627314732347	0.07177627314732303	-0.1745288404479103	-0.1221211849814514	-0.06705783318924391	0.003658260860637372	-0.1235477019732188	-0.05648178701402147	-0.02185799250825324	0.2887496909485982	-0.03768574974263794	0.05778693876857702	-0.06355642873528199	0.1607132709748422	0.1607132709748429	0.0003228844035385127	-0.01396589440038452	-0.004661915351851047	-0.04398732014182183	0.1063105258138779	-0.08591769703638411	-0.0271575166253243	-0.2057046543543495	0.1306451097975157	-0.01435152476316061	-0.05582229378293661	5.703588924303316	1.070127676101211	4.249858750403435	26.68512237685439	-515.6763640664409	-82.39750985399392	-40.05898756207232	-6.20192727102727	-2.741339424653975	-1.093708697620362	14.34437586991217	-1.833792726567383	2.795352230776062	-2.806990587138076	7.97958064889501	7.979580648895164	0.0851826705656417	-0.7503382611512517	-0.1533566521864935	-2.099093538964157	-4.722434873040035e-08	1.737605420592864e-07	1.391065336605972e-07	4.057943606167055e-08	-3.518096443914676e-07	7.688789642466258e-08	-1.247436952376248e-08
0.03	-0.04282055573914342	0.06787060268716684	0.8954794536619162	0.2020272593894323	-0.3226371244551447	-0.4864295225273385	-0.1393330837153516	0.07377030889439312	0.07377030889435085	-0.1745250253739112	-0.1222939394137794	-0.06711485519658618	0.003113222640461034	-0.1830059405130382	-0.08335412931778349	-0.03255217520050292	0.4272237765061213	-0.05569858398435083	0.08554263605038658	-0.09246408343047531	0.2377252237515746	0.2377252237515509	0.0004230556210868407	-0.02053562849087345	-0.006713316472060295	-0.06489894254915284	0.1010839074401419	-0.08111126322245953	-0.02646743904061604	-0.2014548278734665	0.1281816480631641	-0.01535274491442996	-0.05139708859086874	4.961253370204381	1.53847698909593	4.285369174927655	26.21847905043274	-515.1231327939363	-80.37462791621439	-40.10017846062537	-5.773166610888472	-2.637638506011164	-1.05548529560624	13.49533094542679	-1.771100302869605	2.747117551914619	-2.889427407339049	7.50670690842014	7.5067069084163	-0.03009161568108173	-0.6028704200948078	-0.2266529087968995	-2.069032597783063	-6.980244634488265e-08	1.959752043921053e-07	1.767326636363705e-07	5.88029655988859e-08	-5.000102674450105e-07	6.989633150740395e-08	-1.699215324179756e-08
